<svg width="123" height="123" viewBox="0 0 123 123" fill="none" xmlns="http://www.w3.org/2000/svg">
<circle opacity="0.5" cx="61.1195" cy="61.1195" r="61.1195" fill="url(#paint0_linear_5854_3224)"/>
<path d="M61.0252 86.5948C75.1469 86.5948 86.5948 75.1469 86.5948 61.0252C86.5948 46.9035 75.1469 35.4556 61.0252 35.4556C46.9035 35.4556 35.4556 46.9035 35.4556 61.0252C35.4556 75.1469 46.9035 86.5948 61.0252 86.5948Z" fill="#FFF1EE"/>
<path d="M62.5056 75.9999C61.7825 76.0041 61.0657 75.8654 60.3963 75.5919C59.7269 75.3184 59.118 74.9154 58.6046 74.406L47.6159 63.4135C46.5812 62.3786 46 60.9749 46 59.5112C46 58.0475 46.5812 56.6438 47.6159 55.6089C48.6505 54.5739 50.0537 53.9925 51.5169 53.9925C52.98 53.9925 54.3833 54.5739 55.4179 55.6089L62.5056 62.754L80.5821 44.6164C81.6167 43.5814 83.02 43 84.4831 43C85.9463 43 87.3495 43.5814 88.3841 44.6164C89.4188 45.6514 90 47.0551 90 48.5187C90 49.9824 89.4188 51.3861 88.3841 52.421L66.4066 74.406C65.8932 74.9154 65.2844 75.3184 64.615 75.5919C63.9455 75.8654 63.2287 76.0041 62.5056 75.9999Z" fill="#F38E7A"/>
<defs>
<linearGradient id="paint0_linear_5854_3224" x1="0" y1="0" x2="95.4992" y2="122.239" gradientUnits="userSpaceOnUse">
<stop stop-color="#FFE2BC"/>
<stop offset="1" stop-color="#FF965C"/>
</linearGradient>
</defs>
</svg>
